<?xml version="1.0" standalone="no"?>
<!DOCTYPE svg PUBLIC "-//W3C//DTD SVG 20010904//EN"
 "http://www.w3.org/TR/2001/REC-SVG-20010904/DTD/svg10.dtd">
<svg version="1.0" xmlns="http://www.w3.org/2000/svg"
 width="512.000000pt" height="512.000000pt" viewBox="0 0 512.000000 512.000000"
 preserveAspectRatio="xMidYMid meet">
<metadata>
Created by potrace 1.11, written by Peter Selinger 2001-2013
</metadata>
<g transform="translate(0.000000,512.000000) scale(0.100000,-0.100000)"
fill="#000000" stroke="none">
<path d="M189 5111 c-59 -19 -149 -89 -149 -118 0 -7 -3 -13 -8 -13 -30 0 -31
-75 -31 -2425 -1 -2341 0 -2350 20 -2395 25 -55 71 -105 124 -133 l40 -22
2375 0 2375 0 49 29 c61 36 89 67 115 130 21 48 21 54 21 2392 0 2608 6 2396
-68 2476 -21 22 -55 50 -77 62 l-40 21 -2360 2 c-1298 1 -2372 -2 -2386 -6z
m1571 -1111 l0 -640 -640 0 -640 0 0 640 0 640 640 0 640 0 0 -640z m1440 0
l0 -640 -640 0 -640 0 0 640 0 640 640 0 640 0 0 -640z m1440 0 l0 -640 -640
0 -640 0 0 640 0 640 640 0 640 0 0 -640z m-2880 -1440 l0 -640 -640 0 -640 0
0 640 0 640 640 0 640 0 0 -640z m1440 0 l0 -640 -640 0 -640 0 0 640 0 640
640 0 640 0 0 -640z m1440 0 l0 -640 -640 0 -640 0 0 640 0 640 640 0 640 0 0
-640z m-2880 -1440 l0 -640 -640 0 -640 0 0 640 0 640 640 0 640 0 0 -640z
m1440 0 l0 -640 -640 0 -640 0 0 640 0 640 640 0 640 0 0 -640z m1440 0 l0
-640 -640 0 -640 0 0 640 0 640 640 0 640 0 0 -640z"/>
</g>
</svg>
